<?xml version="1.0" standalone="no"?>
<!DOCTYPE svg PUBLIC "-//W3C//DTD SVG 1.1//EN" "http://www.w3.org/Graphics/SVG/1.1/DTD/svg11.dtd">
<svg xmlns="http://www.w3.org/2000/svg" xmlns:xlink="http://www.w3.org/1999/xlink" width="484" height="94" viewBox="0 0 484 94"><clipPath id="cl_4"><rect width="483.88672" height="94.238281"/></clipPath><g clip-path="url(#cl_4)"><path fill="white" transform="matrix(0.488281 0 0 0.488281 0 -200.684)" d="M38.144 558.964C40.9813 558.505 43.136 558.132 44.5867 557.854L44.5867 442.91C44.5867 439.614 44.16 436.937 43.3067 434.889C42.4533 432.841 41.2267 431.241 39.6373 430.068C38.0373 428.873 36.096 428.084 33.792 427.678C31.488 427.284 28.864 427.081 25.9413 427.081C23.04 427.081 20.16 427.316 17.3227 427.764C14.5067 428.222 12.352 428.574 10.88 428.83L10.88 543.817C10.88 547.124 11.3067 549.79 12.16 551.838C13.0347 553.886 14.2613 555.508 15.8293 556.702C17.4187 557.876 19.3707 558.644 21.6747 559.049C24 559.444 26.624 559.646 29.5253 559.646C32.4267 559.646 35.296 559.412 38.144 558.964Z"/><path fill="white" transform="matrix(0.488281 0 0 0.488281 0 -200.684)" d="M161.673 531.828C164.201 525.406 165.47 518.089 165.47 509.897C165.47 502.249 164.201 495.252 161.673 488.905C159.166 482.569 155.636 477.193 151.092 472.777C146.537 468.34 141.086 464.905 134.75 462.452C128.404 460.009 121.332 458.782 113.545 458.782C105.748 458.782 98.6755 459.977 92.3395 462.366C85.9928 464.734 80.5422 468.126 75.9982 472.564C71.4435 476.98 67.9022 482.356 65.3742 488.692C62.8675 495.038 61.6195 502.11 61.6195 509.897C61.6195 517.833 62.8675 524.98 65.3742 531.316C67.9022 537.662 71.4435 543.049 75.9982 547.486C80.5422 551.902 85.9928 555.294 92.3395 557.684C98.6755 560.041 105.748 561.225 113.545 561.225C121.332 561.225 128.404 560.094 134.75 557.854C141.086 555.614 146.537 552.308 151.092 547.956C155.636 543.604 159.166 538.228 161.673 531.828ZM100.745 528.457C97.6408 524.169 96.0942 517.982 96.0942 509.897C96.0942 501.993 97.6088 495.892 100.66 491.593C103.7 487.305 107.998 485.15 113.545 485.15C119.092 485.15 123.38 487.305 126.43 491.593C129.47 495.892 130.996 501.993 130.996 509.897C130.996 517.833 129.502 523.998 126.516 528.372C123.55 532.724 119.305 534.9 113.758 534.9C108.212 534.9 103.87 532.756 100.745 528.457Z"/><path fill="white" transform="matrix(0.488281 0 0 0.488281 0 -200.684)" d="M249.359 461.684C243.215 459.753 236.367 458.782 228.836 458.782C221.434 458.782 214.596 459.753 208.314 461.684C202.052 463.593 196.644 466.494 192.1 470.388C187.546 474.292 183.972 479.209 181.391 485.15C178.799 491.102 177.508 498.1 177.508 506.142C177.508 514.334 178.724 521.406 181.178 527.348C183.62 533.3 186.863 538.164 190.906 541.94C194.938 545.694 199.631 548.468 204.986 550.26C210.33 552.03 215.972 552.905 221.924 552.905C229.711 552.905 236.314 551.732 241.722 549.364L241.722 552.521C241.722 557.812 239.599 561.63 235.364 563.998C231.151 566.388 225.476 567.582 218.34 567.582C213.188 567.582 208.196 566.857 203.364 565.406C198.554 563.956 194.234 562.164 190.394 560.03C188.826 561.225 187.407 562.974 186.127 565.278C184.868 567.604 184.25 570.292 184.25 573.342C184.25 580.596 187.674 585.844 194.532 589.086C201.412 592.329 210.874 593.95 222.906 593.95C229.903 593.95 236.474 593.15 242.618 591.561C248.762 589.961 254.106 587.476 258.66 584.094C263.237 580.734 266.852 576.51 269.498 571.422C272.143 566.356 273.466 560.329 273.466 553.332L273.466 483.956C273.466 480.372 272.698 477.46 271.162 475.209C269.647 472.969 267.578 470.921 264.932 469.065C260.687 466.057 255.503 463.593 249.359 461.684ZM237.071 485.961C238.863 486.473 240.207 486.985 241.124 487.497L241.124 523.977C237.967 526.484 233.668 527.732 228.239 527.732C223.226 527.732 219.108 526.057 215.866 522.697C212.623 519.316 211.002 513.801 211.002 506.142C211.002 499.401 212.623 494.228 215.866 490.612C219.108 486.974 223.972 485.15 230.458 485.15C233.071 485.15 235.279 485.428 237.071 485.961Z"/><path fill="white" transform="matrix(0.488281 0 0 0.488281 0 -200.684)" d="M298.465 422.302C295.105 425.748 293.43 429.972 293.43 434.974C293.43 440.009 295.105 444.254 298.465 447.689C301.846 451.134 306.316 452.852 311.862 452.852C317.409 452.852 321.857 451.134 325.217 447.689C328.598 444.254 330.294 440.009 330.294 434.974C330.294 429.972 328.598 425.748 325.217 422.302C321.857 418.868 317.409 417.14 311.862 417.14C306.316 417.14 301.846 418.868 298.465 422.302ZM322.273 558.964C325.11 558.505 327.265 558.132 328.716 557.854L328.716 477.214C328.716 473.918 328.268 471.241 327.393 469.193C326.54 467.145 325.313 465.524 323.724 464.329C322.156 463.134 320.204 462.345 317.878 461.94C315.574 461.545 312.972 461.342 310.07 461.342C307.169 461.342 304.289 461.588 301.452 462.068C298.604 462.526 296.46 462.878 295.009 463.134L295.009 543.817C295.009 547.124 295.436 549.79 296.289 551.838C297.164 553.886 298.39 555.508 299.958 556.702C301.548 557.876 303.5 558.644 305.804 559.049C308.129 559.444 310.753 559.646 313.654 559.646C316.556 559.646 319.425 559.412 322.273 558.964Z"/><path fill="white" transform="matrix(0.488281 0 0 0.488281 0 -200.684)" d="M438.774 554.91C441.761 551.614 443.574 546.846 444.235 540.617L412.534 508.916L424.011 499.017C426.913 496.521 429.451 494.313 431.649 492.404C433.835 490.473 435.617 488.649 436.982 486.942C438.369 485.214 439.393 483.518 440.054 481.865C440.737 480.222 441.078 478.398 441.078 476.404C441.078 471.796 438.987 467.977 434.806 464.926C430.646 461.886 425.131 460.361 418.251 460.361L384.161 495.262L384.161 442.91C384.161 439.614 383.734 436.937 382.881 434.889C382.027 432.841 380.801 431.241 379.211 430.068C377.643 428.873 375.691 428.084 373.366 427.678C371.062 427.284 368.459 427.081 365.558 427.081C362.657 427.081 359.777 427.316 356.939 427.764C354.091 428.222 351.947 428.649 350.497 429.044L350.497 543.817C350.497 547.124 350.923 549.79 351.777 551.838C352.63 553.886 353.846 555.508 355.446 556.702C357.035 557.876 358.987 558.644 361.291 559.049C363.595 559.444 366.198 559.646 369.099 559.646C372.022 559.646 374.902 559.412 377.718 558.964C380.555 558.505 382.71 558.132 384.161 557.854L384.161 521.801L403.787 546.377C407.627 551.273 411.19 554.74 414.497 556.788C417.793 558.836 421.558 559.86 425.803 559.86C431.489 559.86 435.809 558.206 438.774 554.91Z"/><path fill="white" transform="matrix(0.488281 0 0 0.488281 0 -200.684)" d="M464.297 422.302C460.937 425.748 459.263 429.972 459.263 434.974C459.263 440.009 460.937 444.254 464.297 447.689C467.679 451.134 472.148 452.852 477.695 452.852C483.241 452.852 487.689 451.134 491.049 447.689C494.431 444.254 496.127 440.009 496.127 434.974C496.127 429.972 494.431 425.748 491.049 422.302C487.689 418.868 483.241 417.14 477.695 417.14C472.148 417.14 467.679 418.868 464.297 422.302ZM488.105 558.964C490.943 558.505 493.097 558.132 494.548 557.854L494.548 477.214C494.548 473.918 494.1 471.241 493.225 469.193C492.372 467.145 491.145 465.524 489.556 464.329C487.988 463.134 486.036 462.345 483.711 461.94C481.407 461.545 478.804 461.342 475.903 461.342C473.001 461.342 470.121 461.588 467.284 462.068C464.436 462.526 462.292 462.878 460.841 463.134L460.841 543.817C460.841 547.124 461.268 549.79 462.121 551.838C462.996 553.886 464.223 555.508 465.791 556.702C467.38 557.876 469.332 558.644 471.636 559.049C473.961 559.444 476.585 559.646 479.487 559.646C482.388 559.646 485.257 559.412 488.105 558.964Z"/><path fill="white" transform="matrix(0.488281 0 0 0.488281 0 -200.684)" d="M515.732 487.241C513.086 493.641 511.764 501.193 511.764 509.897C511.764 517.833 512.98 524.948 515.433 531.23C517.876 537.492 521.449 542.868 526.142 547.358C530.836 551.86 536.574 555.294 543.38 557.684C550.174 560.041 557.865 561.225 566.462 561.225C574.398 561.225 581.396 560.265 587.454 558.366C593.534 556.468 598.505 554.249 602.345 551.71C608.148 548.02 611.049 543.07 611.049 536.862L611.049 442.91C611.049 439.614 610.644 436.937 609.854 434.889C609.054 432.841 607.86 431.241 606.27 430.068C604.702 428.873 602.75 428.084 600.425 427.678C598.121 427.284 595.518 427.081 592.617 427.081C589.566 427.081 586.601 427.316 583.7 427.764C580.798 428.222 578.676 428.649 577.342 429.044L577.342 461.172C575.774 460.489 573.726 459.924 571.198 459.465C568.692 459.017 566.121 458.782 563.476 458.782C556.222 458.782 549.449 459.806 543.166 461.854C536.905 463.902 531.433 467.049 526.74 471.284C522.046 475.497 518.377 480.82 515.732 487.241ZM551.572 491.294C555.412 487.198 560.894 485.15 568.041 485.15C571.732 485.15 574.91 485.94 577.556 487.497L577.556 531.102C576.5 532.041 575.006 532.884 573.076 533.62C571.166 534.334 569.033 534.686 566.676 534.686C559.934 534.686 554.772 532.617 551.188 528.457C547.625 524.276 545.854 518.089 545.854 509.897C545.854 501.598 547.753 495.39 551.572 491.294Z"/><path fill="white" transform="matrix(0.488281 0 0 0.488281 0 -200.684)" d="M701.978 552.905C709.509 547.22 713.285 539.358 713.285 529.31C713.285 521.268 710.607 514.697 705.263 509.598C699.909 504.51 690.895 500.51 678.213 497.609L672.069 496.244Q666.517 495.06 664.517 493.684C663.205 492.745 662.554 491.55 662.554 490.1C662.554 487.966 663.727 486.42 666.095 485.449C668.485 484.457 671.855 483.956 676.207 483.956C678.341 483.956 680.687 484.158 683.247 484.553C685.829 484.958 688.378 485.449 690.885 486.046C693.381 486.622 695.685 487.273 697.797 488.009C699.93 488.756 701.519 489.449 702.575 490.1C704.303 488.649 705.733 486.836 706.842 484.638C707.973 482.452 708.549 479.849 708.549 476.83C708.549 473.652 707.61 470.9 705.733 468.596C703.877 466.27 701.359 464.372 698.181 462.921C695.023 461.47 691.29 460.393 687.002 459.678C682.735 458.942 678.149 458.569 673.263 458.569C666.778 458.569 660.858 459.294 655.514 460.745C650.159 462.196 645.573 464.244 641.733 466.889C637.893 469.534 634.917 472.852 632.815 476.83C630.703 480.788 629.658 485.214 629.658 490.1C629.658 499.092 632.453 506.004 638.063 510.836C643.695 515.646 652.25 519.177 663.749 521.417L669.679 522.612Q675.215 523.604 677.615 525.172C679.205 526.228 680.005 527.678 680.005 529.524C680.005 531.518 678.906 533.108 676.719 534.302C674.522 535.476 671.386 536.052 667.29 536.052C660.826 536.052 655.109 535.23 650.138 533.577C645.189 531.934 640.805 530.057 636.997 527.945C635.141 529.396 633.551 531.22 632.218 533.406C630.906 535.572 630.255 538.249 630.255 541.428C630.255 544.873 631.205 547.849 633.114 550.345C635.013 552.852 637.647 554.932 641.007 556.574C644.389 558.217 648.453 559.444 653.21 560.244C657.989 561.033 663.151 561.438 668.698 561.438C683.343 561.438 694.437 558.59 701.978 552.905Z"/><path fill="white" transform="matrix(0.488281 0 0 0.488281 0 -200.684)" d="M728.715 528.158C725.27 531.86 723.552 536.478 723.552 542.025C723.552 547.572 725.27 552.201 728.715 555.892C732.15 559.582 736.843 561.438 742.795 561.438C748.736 561.438 753.419 559.582 756.832 555.892C760.267 552.201 761.995 547.572 761.995 542.025C761.995 536.478 760.267 531.86 756.832 528.158C753.419 524.468 748.736 522.612 742.795 522.612C736.843 522.612 732.15 524.468 728.715 528.158Z"/><path fill="white" transform="matrix(0.488281 0 0 0.488281 0 -200.684)" d="M783.379 427.764C780.477 428.222 778.365 428.649 777.064 429.044L777.064 534.686C777.064 541.15 779.965 546.42 785.768 550.516C790.003 553.566 795.155 556.105 801.213 558.153C807.293 560.201 814.707 561.225 823.443 561.225C831.485 561.225 838.845 560.137 845.501 557.982C852.179 555.796 857.832 552.596 862.44 548.382C867.069 544.148 870.685 538.825 873.277 532.425C875.859 526.004 877.16 518.494 877.16 509.897C877.16 501.598 875.891 494.27 873.363 487.924C870.856 481.588 867.411 476.265 863.037 471.966C858.685 467.678 853.661 464.404 847.976 462.153C842.312 459.913 836.307 458.782 829.971 458.782C826.408 458.782 823.144 459.06 820.157 459.593C817.192 460.105 814.056 461.022 810.728 462.324L810.728 442.91C810.728 439.614 810.323 436.937 809.533 434.889C808.765 432.841 807.581 431.241 805.992 430.068C804.392 428.873 802.451 428.084 800.147 427.678C797.843 427.284 795.219 427.081 792.296 427.081C789.277 427.081 786.301 427.316 783.379 427.764ZM837.565 528.457C834.205 532.617 829.501 534.686 823.443 534.686C820.392 534.686 817.853 534.388 815.805 533.79C813.757 533.193 812.008 532.446 810.557 531.529L810.557 488.308C812.797 487.262 814.877 486.473 816.787 485.961C818.717 485.428 820.989 485.15 823.613 485.15C829.437 485.15 834.067 487.198 837.48 491.294C840.915 495.39 842.643 501.598 842.643 509.897C842.643 518.089 840.947 524.276 837.565 528.457Z"/><path fill="white" transform="matrix(0.488281 0 0 0.488281 0 -200.684)" d="M961.031 461.684C954.887 459.753 948.039 458.782 940.508 458.782C933.105 458.782 926.268 459.753 919.985 461.684C913.724 463.593 908.316 466.494 903.772 470.388C899.217 474.292 895.644 479.209 893.063 485.15C890.471 491.102 889.18 498.1 889.18 506.142C889.18 514.334 890.396 521.406 892.849 527.348Q896.513 536.276 902.577 541.94C906.609 545.694 911.303 548.468 916.657 550.26C922.001 552.03 927.644 552.905 933.596 552.905C941.383 552.905 947.985 551.732 953.393 549.364L953.393 552.521C953.393 557.812 951.271 561.63 947.036 563.998C942.823 566.388 937.148 567.582 930.012 567.582C924.86 567.582 919.868 566.857 915.036 565.406C910.225 563.956 905.905 562.164 902.065 560.03C900.497 561.225 899.079 562.974 897.799 565.278C896.54 567.604 895.921 570.292 895.921 573.342C895.921 580.596 899.345 585.844 906.204 589.086C913.084 592.329 922.545 593.95 934.577 593.95C941.575 593.95 948.145 593.15 954.289 591.561C960.433 589.961 965.777 587.476 970.332 584.094C974.908 580.734 978.524 576.51 981.169 571.422C983.815 566.356 985.137 560.329 985.137 553.332L985.137 483.956C985.137 480.372 984.369 477.46 982.833 475.209C981.319 472.969 979.249 470.921 976.604 469.065C972.359 466.057 967.175 463.593 961.031 461.684ZM948.743 485.961C950.535 486.473 951.879 486.985 952.796 487.497L952.796 523.977C949.639 526.484 945.34 527.732 939.911 527.732C934.897 527.732 930.78 526.057 927.537 522.697C924.295 519.316 922.673 513.801 922.673 506.142C922.673 499.401 924.295 494.228 927.537 490.612C930.78 486.974 935.644 485.15 942.129 485.15C944.743 485.15 946.951 485.428 948.743 485.961Z"/></g></svg>